<svg width="622.630554" height="479.010254" viewBox="0 0 622.631 479.01" fill="none" xmlns="http://www.w3.org/2000/svg" xmlns:xlink="http://www.w3.org/1999/xlink">
	<desc>
			Created with Pixso.
	</desc>
	<defs>
		<linearGradient id="paint_linear_14_78_0" x1="130.739746" y1="15.958588" x2="425.248901" y2="348.188080" gradientUnits="userSpaceOnUse">
			<stop stop-color="#FFFFFF"/>
			<stop offset="1.000000" stop-color="#FFFFFF" stop-opacity="0.549020"/>
		</linearGradient>
	</defs>
	<rect id="Rectangle 1" x="90.117737" rx="32.000000" width="551.297852" height="348.188110" transform="rotate(15 90.117737 0.000000)" fill="#40AB91" fill-opacity="1.000000"/>
	<rect id="Rectangle 1" x="90.117737" rx="32.000000" width="551.297852" height="348.188110" transform="rotate(15 90.117737 0.000000)" stroke="url(#paint_linear_14_78_0)" stroke-opacity="0.500000" stroke-width="2.000000"/>
	<path id="Name" d="M91.2581 249.078L93.031 249.553L90.3957 259.388L88.811 258.963L85.9706 251.022L85.888 251L84.0931 257.699L82.3136 257.222L84.9489 247.387L86.5436 247.814L89.3756 255.76L89.4614 255.783L91.2581 249.078ZM96.812 260.021C96.3287 260.557 95.4936 260.913 94.3348 260.603C92.9284 260.226 92.0747 259.172 92.463 257.723C92.908 256.062 94.3898 256 95.8634 256.232C97.2013 256.441 97.7334 256.556 97.8669 256.057L97.8749 256.027C98.0686 255.304 97.7368 254.773 96.9279 254.556C96.0795 254.329 95.4749 254.631 95.1655 255.086L93.6064 254.42C94.3494 253.179 95.7261 252.808 97.2745 253.223C98.6843 253.601 100.116 254.611 99.5929 256.562L98.2704 261.498L96.5998 261.05L96.8714 260.037L96.812 260.021ZM101.762 262.433L100.025 261.968L102.001 254.592L103.662 255.037L103.327 256.289L103.412 256.312C103.944 255.555 104.82 255.245 105.81 255.51C106.804 255.777 107.383 256.48 107.44 257.391L107.52 257.412C108.066 256.681 109.023 256.371 110.092 256.658C111.446 257.021 112.163 258.147 111.722 259.794L110.395 264.747L108.652 264.28L109.906 259.598C110.151 258.684 109.707 258.122 109.004 257.934C108.165 257.709 107.515 258.154 107.292 258.986L106.06 263.585L104.357 263.129L105.63 258.374C105.834 257.615 105.461 256.985 104.725 256.787C103.976 256.586 103.206 257.042 102.964 257.947L101.762 262.433ZM119.166 264.977C118.515 266.176 117.108 266.701 115.391 266.241C113.166 265.645 112.204 263.805 112.825 261.491C113.434 259.216 115.227 258.034 117.34 258.6C119.155 259.086 120.406 260.639 119.713 263.227L119.569 263.762L114.432 262.385C114.107 263.65 114.655 264.59 115.778 264.89C116.527 265.091 117.188 264.922 117.594 264.358L119.166 264.977ZM117 259.96C115.963 259.682 115.054 260.287 114.749 261.214L118.216 262.143C118.475 261.137 118 260.228 117 259.96ZM94.1449 258.142C93.9733 258.782 94.4064 259.252 95.1295 259.446C96.176 259.727 97.0263 259.208 97.2457 258.389L97.4792 257.517C97.2052 257.642 96.2606 257.509 95.7882 257.45C94.9789 257.353 94.3236 257.475 94.1449 258.142Z" fill="#B9BEBD" fill-opacity="1.000000" fill-rule="evenodd"/>
	<path id="Credit Card No." d="M147.937 146.115C147.798 146.634 147.236 146.936 146.681 146.787C146.127 146.639 145.787 146.095 145.926 145.577C146.067 145.052 146.633 144.75 147.187 144.899C147.742 145.048 148.078 145.59 147.937 146.115ZM118.905 137.685C121.084 138.269 122.425 139.987 122.143 142.254L120.347 141.773C120.454 140.542 119.697 139.614 118.502 139.293C116.894 138.863 115.431 139.794 114.837 142.013C114.232 144.268 115.055 145.769 116.649 146.196C117.824 146.511 118.939 146.116 119.475 145.025L121.269 145.516C120.491 147.321 118.534 148.417 116.197 147.791C113.602 147.096 112.194 144.705 113.044 141.532C113.896 138.353 116.333 136.996 118.905 137.685ZM162.576 149.387C164.755 149.971 166.096 151.689 165.814 153.956L164.018 153.474C164.125 152.243 163.368 151.315 162.173 150.995C160.565 150.564 159.102 151.496 158.508 153.714C157.904 155.969 158.726 157.47 160.32 157.898C161.496 158.213 162.61 157.818 163.146 156.726L164.94 157.218C164.162 159.023 162.206 160.119 159.868 159.493C157.273 158.797 155.865 156.407 156.715 153.234C157.567 150.055 160.004 148.698 162.576 149.387ZM140.19 152.829C139.772 153.294 138.999 153.894 137.731 153.554C135.992 153.088 135.06 151.363 135.711 148.933C136.37 146.473 138.068 145.498 139.771 145.955C141.072 146.303 141.407 147.232 141.529 147.834L141.598 147.853L142.584 144.175L144.327 144.642L141.691 154.477L139.985 154.02L140.296 152.858L140.19 152.829ZM183.617 164.465C183.198 164.93 182.425 165.53 181.158 165.19C179.418 164.724 178.486 162.999 179.137 160.569C179.796 158.109 181.494 157.134 183.197 157.591C184.498 157.94 184.833 158.868 184.955 159.47L185.024 159.489L186.01 155.811L187.753 156.278L185.118 166.113L183.411 165.656L183.722 164.494L183.617 164.465ZM199.356 159.387L201.129 159.862L198.494 169.697L196.909 169.273L194.069 161.332L193.986 161.31L192.191 168.009L190.412 167.532L193.047 157.697L194.642 158.124L197.474 166.069L197.56 166.092L199.356 159.387ZM151.279 149.141L152.735 149.531L152.375 150.875L150.919 150.485L149.897 154.298C149.71 154.998 150.022 155.248 150.457 155.365C150.672 155.422 150.882 155.432 150.983 155.435L150.914 156.87C150.709 156.883 150.343 156.887 149.843 156.771C148.526 156.457 147.701 155.507 148.084 154.12L149.183 150.02L148.136 149.739L148.496 148.395L149.543 148.676L150.016 146.91L151.752 147.375L151.279 149.141ZM123.694 149.655L121.957 149.189L123.934 141.814L125.618 142.265L125.288 143.493L125.364 143.514C125.864 142.731 126.699 142.442 127.544 142.668C127.736 142.719 128.004 142.813 128.156 142.882L127.727 144.483C127.591 144.393 127.239 144.242 126.945 144.164C125.991 143.908 125.107 144.382 124.856 145.32L123.694 149.655ZM175.135 163.438L173.398 162.973L175.375 155.598L177.059 156.049L176.729 157.277L176.805 157.297C177.305 156.515 178.14 156.225 178.985 156.452C179.177 156.503 179.445 156.596 179.597 156.665L179.168 158.266C179.032 158.177 178.68 158.026 178.386 157.947C177.432 157.692 176.548 158.166 176.297 159.104L175.135 163.438ZM134.015 150.301C133.365 151.499 131.957 152.025 130.24 151.565C128.015 150.968 127.054 149.129 127.674 146.815C128.283 144.54 130.076 143.357 132.189 143.923C134.005 144.41 135.255 145.962 134.562 148.551L134.418 149.085L129.281 147.709C128.957 148.974 129.505 149.913 130.627 150.214C131.377 150.415 132.038 150.245 132.443 149.681L134.015 150.301ZM170.185 161.026C169.702 161.562 168.867 161.918 167.708 161.608C166.302 161.231 165.448 160.178 165.837 158.728C166.282 157.068 167.763 157.005 169.237 157.237C170.575 157.447 171.107 157.561 171.24 157.062L171.248 157.033C171.442 156.31 171.11 155.778 170.301 155.562C169.453 155.334 168.848 155.636 168.539 156.091L166.98 155.425C167.723 154.184 169.1 153.813 170.648 154.228C172.058 154.606 173.489 155.616 172.966 157.567L171.644 162.503L169.973 162.055L170.245 161.042L170.185 161.026ZM208.085 168.347C207.474 170.628 205.692 171.782 203.53 171.202C201.371 170.624 200.405 168.734 201.016 166.453C201.629 164.165 203.412 163.007 205.571 163.586C207.733 164.165 208.698 166.059 208.085 168.347ZM145.289 155.441L143.553 154.976L145.529 147.6L147.266 148.066L145.289 155.441ZM131.849 145.283C130.813 145.005 129.904 145.611 129.599 146.538L133.065 147.467C133.324 146.46 132.85 145.551 131.849 145.283ZM202.778 166.917C202.416 168.268 202.718 169.492 203.913 169.812C205.088 170.127 205.962 169.218 206.324 167.868C206.685 166.517 206.387 165.28 205.212 164.965C204.017 164.645 203.14 165.567 202.778 166.917ZM137.486 149.398C137.116 150.781 137.45 151.95 138.599 152.258C139.708 152.555 140.59 151.762 140.973 150.332C141.357 148.899 140.987 147.809 139.871 147.51C138.712 147.2 137.854 148.024 137.486 149.398ZM180.913 161.034C180.542 162.417 180.876 163.586 182.025 163.894C183.134 164.191 184.016 163.398 184.399 161.968C184.783 160.535 184.413 159.445 183.297 159.146C182.138 158.836 181.281 159.66 180.913 161.034ZM167.518 159.147C167.347 159.787 167.78 160.257 168.503 160.451C169.55 160.732 170.4 160.213 170.619 159.394L170.853 158.522C170.579 158.647 169.634 158.514 169.162 158.455C168.352 158.358 167.697 158.48 167.518 159.147ZM210.955 172.017C210.792 172.6 210.184 172.943 209.616 172.791C209.028 172.633 208.679 172.034 208.842 171.451C208.991 170.872 209.592 170.53 210.179 170.688C210.747 170.84 211.104 171.438 210.955 172.017Z" fill="#B9BEBD" fill-opacity="1.000000" fill-rule="evenodd"/>
	<path id="Exp." d="M262.616 299.527L256.182 297.802L258.817 287.967L265.212 289.681L264.812 291.173L260.197 289.936L259.481 292.607L263.766 293.755L263.366 295.251L259.08 294.103L258.361 296.787L263.016 298.034L262.616 299.527ZM272.924 305.254L271.188 304.788L273.905 294.646L275.612 295.104L275.286 296.322L275.388 296.349C275.795 295.889 276.546 295.251 277.847 295.6C279.553 296.057 280.536 297.75 279.877 300.21C279.226 302.64 277.553 303.667 275.817 303.202C274.549 302.862 274.18 301.956 274.05 301.344L273.977 301.325L272.924 305.254ZM265.876 292.495L267.718 292.988L268.477 296.111L270.719 293.793L272.558 294.285L269.348 297.378L270.622 301.672L268.793 301.181L267.942 298.109L265.686 300.349L263.84 299.854L267.077 296.769L265.876 292.495ZM276.986 296.898C275.866 296.598 275.005 297.358 274.621 298.791C274.238 300.22 274.604 301.348 275.714 301.645C276.862 301.953 277.736 301.108 278.107 299.725C278.475 298.351 278.145 297.208 276.986 296.898ZM282.757 303.904C282.594 304.487 281.985 304.83 281.417 304.677C280.83 304.52 280.481 303.921 280.644 303.338C280.792 302.758 281.393 302.417 281.981 302.574C282.549 302.727 282.905 303.325 282.757 303.904Z" fill="#B9BEBD" fill-opacity="1.000000" fill-rule="evenodd"/>
	<path id="09/29" d="M266.373 334.061L267.681 334.412L262.259 343.778L260.952 343.428L266.373 334.061ZM255.745 334.611C256.186 332.967 257.737 332.035 259.562 332.537C261.178 332.979 262.508 334.4 261.688 337.471C260.916 340.373 259.176 341.717 257.153 341.175C255.557 340.748 254.726 339.433 254.927 337.992L256.43 338.394C256.403 339.106 256.78 339.659 257.507 339.854C258.673 340.166 259.615 339.266 260.103 337.465L260.044 337.449C259.442 338.064 258.534 338.294 257.626 338.051C256.146 337.654 255.322 336.202 255.745 334.611ZM274.848 339.729C275.289 338.085 276.84 337.154 278.665 337.655C280.281 338.097 281.611 339.518 280.791 342.59C280.02 345.492 278.279 346.836 276.256 346.294C274.66 345.866 273.829 344.552 274.03 343.11L275.533 343.513C275.506 344.225 275.883 344.777 276.61 344.972C277.776 345.285 278.718 344.385 279.206 342.583L279.147 342.568C278.545 343.183 277.638 343.413 276.729 343.169C275.249 342.773 274.425 341.321 274.848 339.729ZM254.104 335.724C253.363 338.492 251.719 339.771 249.688 339.224C247.653 338.678 246.87 336.746 247.61 333.984C248.353 331.232 249.995 329.973 252.021 330.516C254.044 331.058 254.841 332.976 254.104 335.724ZM272.024 345.036L266.245 343.487L266.541 342.384L270.236 340.298C271.294 339.678 271.855 339.291 272.044 338.587C272.257 337.792 271.791 337.142 270.988 336.927C270.15 336.702 269.462 337.097 269.231 337.957L267.777 337.568C268.206 335.966 269.67 335.245 271.343 335.693C273.038 336.147 273.91 337.488 273.531 338.9C273.277 339.851 272.618 340.497 270.558 341.631L268.708 342.719L268.693 342.775L272.366 343.759L272.024 345.036ZM260.367 335.801C260.598 334.94 260.136 334.016 259.233 333.774C258.342 333.535 257.479 334.071 257.236 334.977C256.998 335.878 257.453 336.761 258.353 337.002C259.242 337.24 260.139 336.677 260.367 335.801ZM279.47 340.919C279.701 340.059 279.239 339.135 278.336 338.893C277.445 338.654 276.582 339.19 276.34 340.096C276.101 340.996 276.556 341.879 277.456 342.121C278.345 342.359 279.242 341.795 279.47 340.919ZM249.155 334.398C248.606 336.422 248.984 337.652 250.034 337.933C251.086 338.215 252.022 337.338 252.565 335.311C253.1 333.304 252.73 332.071 251.68 331.79C250.633 331.509 249.695 332.392 249.155 334.398Z" fill="#FFFFFF" fill-opacity="1.000000" fill-rule="evenodd"/>
	<path id="A. S." d="M94.8447 290.9L93.6194 290.572C93.7374 289.77 93.171 289.133 92.2032 288.873C91.1675 288.596 90.3692 288.949 90.1773 289.665C89.9576 290.474 90.7522 291.017 91.3669 291.361L92.1299 291.796C93.1319 292.346 94.3269 293.297 93.9197 294.817C93.5375 296.243 92.118 296.979 90.14 296.449C88.2496 295.942 87.3221 294.684 87.6459 293.136L88.9221 293.478C88.7529 294.415 89.4511 295.069 90.4302 295.332C91.5112 295.621 92.4435 295.289 92.6642 294.465C92.8643 293.718 92.2478 293.235 91.4116 292.756L90.4883 292.217C89.2314 291.486 88.5752 290.573 88.8891 289.402C89.2788 287.947 90.8371 287.327 92.5265 287.78C94.2414 288.239 95.1696 289.541 94.8447 290.9ZM75.1065 289.882L73.7364 291.905L72.3866 291.543L77.679 283.926L79.1477 284.32L79.9225 293.562L78.5726 293.201L78.4004 290.765L75.1065 289.882ZM77.9734 285.646L75.7645 288.909L78.3171 289.593L78.0385 285.663L77.9734 285.646ZM82.8723 293.555C82.7502 294.011 82.2752 294.278 81.8281 294.158C81.3753 294.037 81.1032 293.57 81.2253 293.114C81.3458 292.664 81.8159 292.393 82.2687 292.514C82.7158 292.634 82.9928 293.105 82.8723 293.555ZM96.5503 297.22C96.4282 297.676 95.9532 297.943 95.5061 297.823C95.0533 297.702 94.7812 297.235 94.9033 296.779C95.0238 296.329 95.4939 296.058 95.9467 296.179C96.3938 296.299 96.6708 296.77 96.5503 297.22Z" fill="#FFFFFF" fill-opacity="1.000000" fill-rule="evenodd"/>
	<path id="Vector (Stroke)" d="M566.976 167.174C567.911 166.823 568.954 167.297 569.304 168.233C571.172 173.213 572.825 181.297 571.741 189.518C570.651 197.795 566.758 206.319 557.446 211.777C556.584 212.282 555.476 211.993 554.971 211.131C554.466 210.269 554.755 209.161 555.617 208.656C563.739 203.895 567.172 196.507 568.155 189.046C569.145 181.528 567.621 174.047 565.917 169.503C565.566 168.567 566.04 167.525 566.976 167.174ZM557.686 171.553C558.621 171.201 559.664 171.673 560.016 172.608C561.337 176.114 562.505 181.79 561.745 187.574C560.978 193.415 558.216 199.473 551.589 203.344C550.727 203.848 549.619 203.557 549.115 202.694C548.611 201.831 548.902 200.724 549.765 200.22C555.199 197.046 557.499 192.124 558.159 187.103C558.826 182.024 557.787 176.953 556.631 173.883C556.278 172.948 556.751 171.905 557.686 171.553ZM549.981 176.984C550.914 176.627 551.96 177.095 552.317 178.028C553.042 179.927 553.684 182.975 553.278 186.104C552.863 189.292 551.332 192.662 547.63 194.799C546.765 195.299 545.659 195.002 545.159 194.137C544.66 193.272 544.956 192.166 545.821 191.666C548.322 190.222 549.384 187.994 549.69 185.637C550.004 183.221 549.496 180.781 548.937 179.319C548.581 178.386 549.048 177.34 549.981 176.984Z" fill="#FFFFFF" fill-opacity="1.000000" fill-rule="evenodd"/>
	<path id="1602 0911 2019 2021" d="M212.19 211.206C213.379 206.68 217.65 204.29 222.67 205.659C227.29 206.921 230.887 210.886 228.712 219.03C226.683 226.664 221.884 230.206 216.315 228.714C211.817 227.509 209.514 223.818 210.092 219.913L214.778 221.168C214.701 222.903 215.686 224.178 217.407 224.639C220.342 225.425 222.615 223.131 223.818 218.673L223.667 218.633C222.141 220.343 219.623 220.954 217.148 220.291C213.164 219.223 211.073 215.404 212.19 211.206ZM333.052 243.591C334.24 239.064 338.512 236.675 343.532 238.044C348.152 239.306 351.748 243.27 349.574 251.415C347.545 259.048 342.745 262.591 337.176 261.099C332.679 259.894 330.376 256.203 330.953 252.297L335.639 253.553C335.563 255.288 336.548 256.563 338.268 257.024C341.204 257.81 343.477 255.516 344.679 251.058L344.528 251.017C343.002 252.728 340.485 253.339 338.01 252.676C334.025 251.608 331.935 247.789 333.052 243.591ZM130.729 197.378C129.509 201.96 125.219 204.329 120.222 202.966C115.602 201.704 111.981 197.741 114.202 189.512C116.246 181.972 121.023 178.423 126.577 179.911C131.06 181.112 133.364 184.827 132.818 188.644L128.132 187.389C128.191 185.722 127.206 184.447 125.485 183.986C122.55 183.2 120.288 185.513 119.092 189.884L119.243 189.925C120.786 188.211 123.285 187.61 125.76 188.274C129.744 189.341 131.865 193.169 130.729 197.378ZM152.976 199.384C150.983 206.792 146.419 210.18 140.759 208.663C135.102 207.139 132.825 201.902 134.827 194.521C136.808 187.158 141.36 183.872 146.997 185.383C152.634 186.893 154.96 192.038 152.976 199.384ZM169.377 215.805L153.349 211.511L154.267 208.085L164.259 202.82C166.823 201.404 168.254 200.469 168.733 198.68C169.263 196.703 168.121 195.079 166.144 194.549C164.091 193.999 162.379 194.956 161.81 197.108L157.298 195.899C158.473 191.483 162.467 189.528 167.183 190.791C172.005 192.084 174.452 195.691 173.406 199.593C172.721 202.151 170.911 203.923 165.163 206.904L161.019 209.239L160.978 209.39L170.419 211.919L169.377 215.805ZM208.056 214.142C206.062 221.551 201.499 224.938 195.839 223.422C190.181 221.898 187.904 216.661 189.907 209.279C191.888 201.916 196.44 198.631 202.077 200.141C207.714 201.652 210.04 206.796 208.056 214.142ZM289.449 247.978L273.42 243.684L274.338 240.258L284.331 234.993C286.894 233.576 288.325 232.642 288.804 230.853C289.334 228.876 288.192 227.252 286.215 226.722C284.162 226.172 282.45 227.129 281.882 229.281L277.369 228.072C278.544 223.656 282.538 221.701 287.254 222.964C292.076 224.256 294.523 227.864 293.477 231.766C292.792 234.324 290.983 236.096 285.234 239.076L281.09 241.412L281.05 241.563L290.49 244.092L289.449 247.978ZM313.792 242.474C311.798 249.883 307.235 253.27 301.575 251.753C295.917 250.229 293.64 244.993 295.643 237.611C297.624 230.248 302.176 226.963 307.813 228.473C313.45 229.984 315.776 235.128 313.792 242.474ZM380.059 272.257L364.031 267.963L364.949 264.537L374.941 259.272C377.504 257.855 378.935 256.921 379.415 255.132C379.944 253.155 378.803 251.531 376.825 251.001C374.773 250.451 373.061 251.408 372.492 253.56L367.979 252.351C369.155 247.935 373.148 245.98 377.865 247.243C382.687 248.535 385.133 252.143 384.088 256.045C383.402 258.603 381.593 260.375 375.844 263.355L371.7 265.691L371.66 265.842L381.1 268.371L380.059 272.257ZM404.402 266.753C402.409 274.162 397.845 277.549 392.186 276.032C386.528 274.508 384.251 269.272 386.253 261.89C388.234 254.527 392.786 251.242 398.423 252.752C404.061 254.263 406.386 259.407 404.402 266.753ZM420.804 283.175L404.775 278.88L405.693 275.454L415.685 270.189C418.249 268.773 419.68 267.838 420.159 266.05C420.689 264.072 419.547 262.448 417.57 261.918C415.517 261.368 413.805 262.325 413.236 264.478L408.724 263.269C409.899 258.852 413.893 256.897 418.609 258.161C423.431 259.453 425.878 263.061 424.832 266.962C424.147 269.52 422.338 271.292 416.589 274.273L412.445 276.608L412.404 276.759L421.845 279.289L420.804 283.175ZM107.882 175.233L112.35 176.431L106.326 198.911L101.579 197.639L106.394 179.671L106.258 179.635L100.246 181.486L101.376 177.267L107.882 175.233ZM240.17 210.68L244.638 211.877L238.614 234.357L233.867 233.086L238.682 215.118L238.546 215.081L232.534 216.932L233.664 212.714L240.17 210.68ZM255.296 214.733L259.763 215.93L253.74 238.41L248.993 237.138L253.807 219.171L253.672 219.134L247.66 220.985L248.79 216.767L255.296 214.733ZM325.501 233.544L329.968 234.741L323.945 257.222L319.198 255.95L324.013 237.982L323.877 237.946L317.865 239.796L318.995 235.578L325.501 233.544ZM435.584 263.041L440.051 264.238L434.027 286.718L429.281 285.446L434.095 267.479L433.959 267.442L427.947 269.293L429.078 265.075L435.584 263.041ZM224.476 214.344C225.026 212.203 223.888 209.989 221.707 209.405C219.496 208.812 217.401 210.111 216.828 212.311C216.252 214.519 217.363 216.652 219.559 217.241C221.732 217.823 223.907 216.497 224.476 214.344ZM345.338 246.729C345.887 244.587 344.749 242.374 342.569 241.789C340.357 241.197 338.262 242.496 337.689 244.696C337.114 246.903 338.224 249.037 340.42 249.625C342.594 250.208 344.769 248.882 345.338 246.729ZM139.664 195.817C138.267 200.999 139.242 204.034 141.815 204.724C144.388 205.413 146.75 203.272 148.124 198.084C149.49 192.982 148.51 189.97 145.952 189.284C143.386 188.597 141.039 190.718 139.664 195.817ZM194.744 210.575C193.347 215.758 194.321 218.793 196.895 219.482C199.468 220.172 201.829 218.03 203.203 212.842C204.57 207.741 203.59 204.728 201.032 204.043C198.466 203.355 196.118 205.476 194.744 210.575ZM300.48 238.907C299.083 244.09 300.057 247.125 302.631 247.814C305.204 248.504 307.565 246.362 308.939 241.174C310.306 236.073 309.326 233.06 306.768 232.375C304.202 231.687 301.854 233.808 300.48 238.907ZM391.09 263.186C389.694 268.369 390.668 271.404 393.241 272.093C395.814 272.783 398.176 270.641 399.55 265.453C400.917 260.352 399.936 257.339 397.378 256.654C394.812 255.966 392.465 258.087 391.09 263.186ZM118.443 194.239C117.855 196.435 119.004 198.636 121.2 199.224C123.396 199.813 125.487 198.529 126.082 196.278C126.688 194.046 125.549 191.897 123.353 191.309C121.172 190.724 119.035 192.061 118.443 194.239Z" fill="#FFFFFF" fill-opacity="1.000000" fill-rule="evenodd"/>
	<path id="Vector" d="M463.815 376.649C464.043 375.795 464.921 375.288 465.775 375.517L478.919 379.038C479.773 379.267 480.28 380.145 480.051 380.999L477.412 390.847C477.252 391.443 476.764 391.895 476.157 392.007L468.746 393.375C468.272 393.463 467.783 393.332 467.417 393.019L461.683 388.129C461.213 387.728 461.016 387.093 461.176 386.496L463.815 376.649ZM488.556 383.278C488.784 382.424 489.662 381.917 490.516 382.146L494.382 383.182C495.236 383.411 495.743 384.288 495.514 385.142L494.685 388.235C494.457 389.089 493.579 389.596 492.725 389.367L488.859 388.331C488.005 388.102 487.498 387.225 487.727 386.371L488.556 383.278ZM504.019 387.421C504.248 386.567 505.125 386.06 505.979 386.289L519.123 389.811C519.977 390.04 520.484 390.918 520.255 391.772L517.769 401.05C517.54 401.904 516.662 402.41 515.808 402.182L502.665 398.66C501.811 398.431 501.304 397.553 501.533 396.699L504.019 387.421ZM481.224 392.086C481.452 391.232 482.33 390.725 483.184 390.954L496.328 394.476C497.182 394.705 497.689 395.582 497.46 396.436L491.659 418.085C491.43 418.939 490.552 419.446 489.698 419.217L476.555 415.695C475.701 415.466 475.194 414.588 475.423 413.734L481.224 392.086ZM459.464 392.885C459.693 392.031 460.571 391.524 461.425 391.753L474.568 395.275C475.422 395.504 475.929 396.381 475.7 397.235L473.214 406.513C472.986 407.367 472.108 407.874 471.254 407.645L458.11 404.123C457.256 403.895 456.749 403.017 456.978 402.163L459.464 392.885ZM499.668 403.658C499.897 402.804 500.775 402.297 501.629 402.526L514.773 406.047C515.627 406.276 516.133 407.154 515.905 408.008L513.419 417.286C513.19 418.14 512.312 418.647 511.458 418.418L498.314 414.896C497.46 414.667 496.953 413.789 497.182 412.935L499.668 403.658ZM495.47 419.324C495.63 418.728 496.119 418.276 496.726 418.164L504.136 416.795C504.611 416.708 505.099 416.839 505.466 417.152L511.199 422.042C511.669 422.443 511.867 423.078 511.707 423.674L509.068 433.522C508.839 434.376 507.961 434.883 507.107 434.654L493.964 431.132C493.11 430.904 492.603 430.026 492.832 429.172L495.47 419.324ZM455.114 409.121C455.342 408.267 456.22 407.76 457.074 407.989L470.218 411.511C471.072 411.74 471.579 412.618 471.35 413.472L468.864 422.75C468.635 423.604 467.757 424.11 466.903 423.882L453.76 420.36C452.905 420.131 452.399 419.253 452.628 418.399L455.114 409.121ZM478.197 421.936C478.426 421.082 479.304 420.575 480.158 420.804L484.024 421.84C484.878 422.069 485.385 422.946 485.156 423.8L484.327 426.893C484.098 427.747 483.22 428.254 482.366 428.025L478.501 426.989C477.647 426.76 477.14 425.882 477.369 425.028L478.197 421.936Z" fill="#FFFFFF" fill-opacity="1.000000" fill-rule="evenodd"/>
	<path id="TOGO invest" d="M134.047 84.2162L140.297 60.7545L131.451 58.3978L132.717 53.6436L155.892 59.8175L154.625 64.5716L145.779 62.2149L139.529 85.6766L134.047 84.2162Z" fill="#FFFFFF" fill-opacity="1.000000" fill-rule="nonzero"/>
	<path id="TOGO invest" d="M162.042 92.0883C159.143 91.3161 156.777 90.0649 154.944 88.3346C153.118 86.5786 151.913 84.4639 151.33 81.9905C150.78 79.4981 150.899 76.7702 151.689 73.8069C152.485 70.8178 153.738 68.3921 155.449 66.5297C157.185 64.6741 159.279 63.4519 161.73 62.863C164.188 62.2484 166.866 62.3272 169.765 63.0993C172.713 63.8849 175.088 65.1524 176.89 66.9017C178.723 68.632 179.919 70.7305 180.476 73.1971C181.059 75.6705 180.952 78.4017 180.156 81.3908C179.366 84.3541 178.1 86.7764 176.357 88.6579C174.646 90.5202 172.562 91.7587 170.104 92.3733C167.678 92.9689 164.99 92.8738 162.042 92.0883ZM163.308 87.3341C165.173 87.8309 166.864 87.8674 168.381 87.4435C169.897 87.0196 171.188 86.1768 172.253 84.9151C173.35 83.6344 174.169 81.9761 174.712 79.9405C175.254 77.9048 175.365 76.0715 175.043 74.4405C174.754 72.7904 174.057 71.4043 172.953 70.2821C171.848 69.1599 170.363 68.3504 168.498 67.8535C166.658 67.3634 164.967 67.3269 163.426 67.7441C161.909 68.168 160.602 69.0203 159.505 70.3011C158.441 71.5628 157.637 73.2115 157.095 75.2471C156.552 77.2828 156.426 79.1257 156.715 80.7757C157.036 82.4067 157.749 83.7833 158.854 84.9055C159.984 86.0344 161.468 86.8439 163.308 87.3341Z" fill="#FFFFFF" fill-opacity="1.000000" fill-rule="nonzero"/>
	<path id="TOGO invest" d="M193.753 100.536C190.603 99.6972 188.048 98.3956 186.089 96.6318C184.154 94.8746 182.871 92.7527 182.238 90.2659C181.63 87.7858 181.727 85.0383 182.53 82.0235C183.334 79.0086 184.616 76.5767 186.377 74.7278C188.138 72.8789 190.27 71.6667 192.771 71.0913C195.298 70.5226 198.099 70.6478 201.174 71.467C202.862 71.9169 204.411 72.5365 205.82 73.3259C207.236 74.0895 208.441 74.9898 209.433 76.0269L207.056 80.2369C206.195 79.3175 205.128 78.5089 203.856 77.8114C202.591 77.0881 201.278 76.5451 199.917 76.1825C197.977 75.6655 196.223 75.6122 194.656 76.0227C193.096 76.4074 191.755 77.2368 190.633 78.5108C189.517 79.7591 188.682 81.4269 188.126 83.5141C187.57 85.6013 187.461 87.4766 187.801 89.1401C188.147 90.7778 188.923 92.1712 190.129 93.3202C191.341 94.4435 192.968 95.2771 195.009 95.8209C196.043 96.0962 197.053 96.255 198.041 96.2973C199.028 96.3396 199.967 96.2587 200.858 96.0545L200.049 96.2042L199.708 97.4865L201.87 89.3697L193.704 87.1942L194.909 82.6719L208.368 86.2574L204.444 100.984C202.916 101.349 201.206 101.487 199.314 101.397C197.421 101.307 195.568 101.02 193.753 100.536Z" fill="#FFFFFF" fill-opacity="1.000000" fill-rule="nonzero"/>
	<path id="TOGO invest" d="M221.031 107.803C218.132 107.031 215.766 105.78 213.933 104.05C212.106 102.294 210.902 100.179 210.319 97.7057C209.769 95.2132 209.888 92.4854 210.677 89.5221C211.474 86.533 212.727 84.1073 214.438 82.2449C216.174 80.3893 218.268 79.167 220.719 78.5782C223.177 77.9636 225.855 78.0424 228.753 78.8145C231.702 79.6001 234.077 80.8675 235.879 82.6169C237.712 84.3472 238.907 86.4456 239.465 88.9123C240.048 91.3856 239.941 94.1169 239.144 97.1059C238.355 100.069 237.089 102.492 235.346 104.373C233.635 106.235 231.551 107.474 229.093 108.088C226.667 108.684 223.979 108.589 221.031 107.803ZM222.297 103.049C224.162 103.546 225.853 103.583 227.369 103.159C228.886 102.735 230.177 101.892 231.242 100.63C232.339 99.3495 233.158 97.6913 233.701 95.6556C234.243 93.62 234.353 91.7866 234.032 90.1556C233.743 88.5056 233.046 87.1194 231.941 85.9973C230.837 84.8751 229.352 84.0656 227.487 83.5687C225.647 83.0785 223.956 83.0421 222.415 83.4592C220.898 83.8831 219.591 84.7355 218.494 86.0162C217.429 87.2779 216.626 88.9266 216.083 90.9623C215.541 92.998 215.415 94.8408 215.704 96.4909C216.025 98.1219 216.738 99.4985 217.843 100.621C218.972 101.75 220.457 102.559 222.297 103.049Z" fill="#FFFFFF" fill-opacity="1.000000" fill-rule="nonzero"/>
	<path id="TOGO invest" d="M254.392 91.3159L255.7 86.4071L260.992 87.8172L259.684 92.726L254.392 91.3159ZM248.183 114.623L253.465 94.7946L258.758 96.2046L253.475 116.033L248.183 114.623Z" fill="#FFFFFF" fill-opacity="1.000000" fill-rule="nonzero"/>
	<path id="TOGO invest" d="M258.048 117.251L263.403 97.1524L268.355 98.4718L267.765 100.84L267.841 100.86C268.894 100.147 270.009 99.7125 271.184 99.5565C272.391 99.3814 273.701 99.4818 275.112 99.8578C277.481 100.489 279.045 101.609 279.804 103.219C280.595 104.81 280.616 107.009 279.868 109.818L276.573 122.186L271.394 120.807L274.411 109.482C274.857 107.807 274.902 106.522 274.547 105.627C274.198 104.706 273.419 104.085 272.209 103.762C271.302 103.521 270.444 103.499 269.635 103.697C268.834 103.87 268.145 104.225 267.57 104.762C267.028 105.279 266.643 105.963 266.416 106.814L263.266 118.641L258.048 117.251Z" fill="#FFFFFF" fill-opacity="1.000000" fill-rule="nonzero"/>
	<path id="TOGO invest" d="M284.078 124.186L282.93 102.355L288.449 103.825L288.654 121.597L288.73 121.617L297.711 106.292L303.231 107.763L291.374 126.13L284.078 124.186Z" fill="#FFFFFF" fill-opacity="1.000000" fill-rule="nonzero"/>
	<path id="TOGO invest" d="M309.225 131.299C305.696 130.359 303.214 128.732 301.779 126.418C300.37 124.111 300.111 121.282 301.004 117.932C301.868 114.685 303.418 112.366 305.651 110.974C307.884 109.582 310.526 109.292 313.575 110.105C316.524 110.89 318.559 112.371 319.68 114.546C320.826 116.728 320.97 119.429 320.112 122.65C320.016 123.011 319.893 123.42 319.745 123.877C319.621 124.341 319.516 124.686 319.429 124.911L305.634 121.236C305.634 121.236 305.726 120.756 306.084 119.379C306.473 117.882 306.626 117.567 306.626 117.567L316.362 120.161L315.602 119.959L315.345 121.091C315.881 119.081 315.913 117.489 315.443 116.315C314.998 115.148 314.033 114.366 312.546 113.97C310.983 113.554 309.674 113.757 308.618 114.579C307.569 115.376 306.776 116.78 306.241 118.789L305.829 120.336C305.349 122.139 305.461 123.591 306.167 124.689C306.873 125.788 308.184 126.593 310.099 127.103C311.183 127.392 312.357 127.594 313.622 127.71C314.887 127.826 316.033 127.828 317.062 127.716L316.586 131.936C315.55 132.074 314.375 132.078 313.06 131.948C311.763 131.851 310.485 131.635 309.225 131.299Z" fill="#FFFFFF" fill-opacity="1.000000" fill-rule="nonzero"/>
	<path id="TOGO invest" d="M327.078 136.056C326.196 135.821 325.268 135.504 324.295 135.107C323.339 134.742 322.435 134.336 321.583 133.888C320.737 133.414 320.012 132.945 319.407 132.48L321.131 128.593C322.224 129.353 323.294 129.997 324.341 130.524C325.414 131.059 326.504 131.473 327.613 131.769C328.873 132.104 329.838 132.182 330.507 132.001C331.176 131.821 331.603 131.383 331.788 130.687C331.898 130.275 331.886 129.913 331.753 129.602C331.62 129.29 331.317 128.961 330.842 128.614C330.4 128.247 329.74 127.837 328.863 127.383C327.359 126.541 326.1 125.695 325.085 124.845C324.102 123.976 323.418 123.048 323.033 122.062C322.647 121.077 322.613 119.991 322.928 118.806C323.436 116.899 324.527 115.644 326.199 115.041C327.871 114.438 330.056 114.495 332.752 115.214C333.987 115.543 335.233 115.985 336.488 116.54C337.769 117.102 338.938 117.731 339.994 118.426L338.27 122.313C337.264 121.632 336.269 121.063 335.283 120.607C334.298 120.151 333.314 119.793 332.331 119.531C331.071 119.195 330.097 119.101 329.41 119.249C328.729 119.372 328.307 119.742 328.142 120.36C328.046 120.721 328.065 121.057 328.197 121.369C328.33 121.68 328.622 122.006 329.071 122.346C329.52 122.687 330.171 123.081 331.023 123.529C332.132 124.128 333.114 124.748 333.969 125.39C334.823 126.031 335.519 126.714 336.055 127.436C336.598 128.133 336.954 128.876 337.121 129.666C337.314 130.462 337.29 131.311 337.05 132.213C336.72 133.45 336.092 134.441 335.164 135.188C334.243 135.908 333.088 136.346 331.697 136.5C330.332 136.66 328.792 136.512 327.078 136.056Z" fill="#FFFFFF" fill-opacity="1.000000" fill-rule="nonzero"/>
	<path id="TOGO invest" d="M347.263 141.433C344.894 140.802 343.31 139.855 342.512 138.594C341.74 137.34 341.652 135.592 342.25 133.35L344.927 123.3L340.655 122.162L341.757 118.027L346.029 119.165L347.779 112.594L352.996 113.984L351.246 120.555L357.635 122.257L356.533 126.392L350.144 124.69L347.817 133.426C347.494 134.637 347.457 135.537 347.704 136.128C347.959 136.692 348.577 137.105 349.56 137.367C350.09 137.508 350.658 137.604 351.265 137.656C351.897 137.714 352.49 137.72 353.042 137.674L352.335 141.998C351.41 142.027 350.542 141.989 349.734 141.884C348.918 141.805 348.094 141.654 347.263 141.433Z" fill="#FFFFFF" fill-opacity="1.000000" fill-rule="nonzero"/>
</svg>
